<svg xmlns="http://www.w3.org/2000/svg" viewBox="0 0 260 300" role="img">
  <title>ChileAtiende</title>
  <defs>
    <clipPath id="roundedIcon">
      <rect x="45" y="30" width="170" height="170" rx="22" ry="22" />
    </clipPath>
  </defs>
  <g clip-path="url(#roundedIcon)">
    <rect x="45" y="30" width="170" height="170" fill="#e5253e" />
    <rect x="45" y="30" width="85" height="170" fill="#0057a6" />
    <polygon fill="#ffffff" points="90 50 94.5 62 107 62 97 70 100 82 90 75 80 82 83 70 73 62 85.5 62" />
    <circle cx="130" cy="116" r="24" fill="#ffffff" />
    <path d="M130 140c30 0 48 18 48 50v32H82v-32c0-32 18-50 48-50z" fill="#ffffff" />
    <circle cx="174" cy="154" r="16" fill="#ffffff" opacity="0.92" />
    <path d="M174 170c18 0 28 11 28 29v23h-56v-23c0-18 10-29 28-29z" fill="#ffffff" opacity="0.92" />
    <circle cx="98" cy="162" r="13" fill="#ffffff" opacity="0.9" />
    <path d="M98 174c15 0 23 9 23 24v22H75v-22c0-15 8-24 23-24z" fill="#ffffff" opacity="0.9" />
  </g>
  <text x="130" y="244" text-anchor="middle" font-family="'Montserrat', 'Segoe UI', sans-serif" font-size="44" font-weight="700" fill="#0057a6">Chile</text>
  <text x="130" y="286" text-anchor="middle" font-family="'Montserrat', 'Segoe UI', sans-serif" font-size="44" font-weight="700" fill="#0057a6">Atiende</text>
</svg>
