<svg xmlns="http://www.w3.org/2000/svg" viewBox="0 0 760 260" role="img" aria-labelledby="title desc">
  <title id="title">ChileAtiende</title>
  <desc id="desc">Logotipo oficial del programa ChileAtiende con isotipo azul y rojo acompañado del texto corporativo.</desc>
  <defs>
    <clipPath id="iconClip">
      <rect x="36" y="32" width="208" height="196" rx="28" ry="28" />
    </clipPath>
  </defs>
  <rect x="8" y="12" width="744" height="236" rx="40" ry="40" fill="#ffffff" stroke="#e0e6f0" stroke-width="2.5" />
  <g clip-path="url(#iconClip)">
    <rect x="36" y="32" width="208" height="196" fill="#0b2f6d" />
    <rect x="36" y="160" width="208" height="68" fill="#e52531" />
    <polygon points="88 72 95.8 95.4 120 95.4 100.6 108.6 108.4 132 88 117.6 67.6 132 75.4 108.6 56 95.4 80.2 95.4" fill="#ffffff" />
    <path d="M164.8 96.4a24 24 0 1 0-48 0 24 24 0 0 0 48 0z" fill="#ffffff" />
    <path d="M84 168c0-34 22.2-56 52.8-56s52.8 22 52.8 56v52H84z" fill="#ffffff" />
    <path d="M192 128.6a18 18 0 1 0-36 0 18 18 0 0 0 36 0z" fill="#ffffff" />
    <path d="M156 180c0-22 14.4-36 36-36s36 14 36 36v40h-72z" fill="#ffffff" opacity="0.92" />
  </g>
  <g fill="#0b2f6d" font-family="'Montserrat', 'Segoe UI', 'Helvetica Neue', Arial, sans-serif" font-weight="700">
    <text x="276" y="142" font-size="72">Chile</text>
    <text x="470" y="142" font-size="72" fill="#4f5b6b">Atiende</text>
  </g>
</svg>
